<svg width="615.6px" height="120.8px" xmlns="http://www.w3.org/2000/svg" viewBox="-57.787499999999966 14.600000000000001 615.5749999999999 120.8" style="background: rgba(0, 0, 0, 0)" preserveAspectRatio="xMidYMid"><defs><linearGradient id="editing-gradient-gradient" x1="0" x2="1" y1="0.5" y2="0.5" gradientUnits="objectBoundingBox"><stop offset="0" stop-color="#569dff"></stop><stop offset="1" stop-color="#00ffff"></stop></linearGradient></defs><g transform="rotate(0,250,87.9)"><g transform="matrix(1.3,0,0,1.6,-9.1,171)"><path d="M -17.1 -45.6 L -31 -45.6 L -22.9 -87.8 L -8.8 -87.8 L -17.1 -45.6 Z M 38.7 -44.3 L 38.7 -44.3 L 38.7 -44.3 Q 30.9 -44.3 30.9 -50.3 L 30.9 -50.3 L 30.9 -50.3 Q 30.9 -52.9 32 -58 L 32 -58 L 32 -58 Q 33.2 -63.1 33.5 -65.1 L 33.5 -65.1 L 33.5 -65.1 Q 34.4 -69.8 34.4 -71.3 L 34.4 -71.3 L 34.4 -71.3 Q 34.4 -74.6 32 -74.6 L 32 -74.6 L 32 -74.6 Q 30.4 -74.6 28.9 -72.3 L 28.9 -72.3 L 28.9 -72.3 Q 27.3 -70.1 26.6 -65.7 L 26.6 -65.7 L 22.7 -45.6 L 10.2 -44.3 L 13.6 -61.7 L 13.6 -61.7 Q 14.2 -64.6 14.7 -67.8 L 14.7 -67.8 L 14.7 -67.8 Q 15.2 -71.1 15.2 -71.6 L 15.2 -71.6 L 15.2 -71.6 Q 15.2 -74.6 13.1 -74.6 L 13.1 -74.6 L 13.1 -74.6 Q 11.6 -74.6 10 -72.4 L 10 -72.4 L 10 -72.4 Q 8.4 -70.2 7.5 -65.7 L 7.5 -65.7 L 3.6 -45.6 L -9 -44.3 L -2.3 -78.2 L 8.1 -79.5 L 7 -73 L 7 -73 Q 8.7 -76.5 11.8 -78 L 11.8 -78 L 11.8 -78 Q 14.8 -79.5 19.6 -79.5 L 19.6 -79.5 L 19.6 -79.5 Q 22.4 -79.5 24.2 -78.1 L 24.2 -78.1 L 24.2 -78.1 Q 26 -76.8 26.6 -74.6 L 26.6 -74.6 L 26.6 -74.6 Q 27.6 -76.9 30.4 -78.2 L 30.4 -78.2 L 30.4 -78.2 Q 33.2 -79.5 36.6 -79.5 L 36.6 -79.5 L 36.6 -79.5 Q 40.1 -79.5 41.8 -78.7 L 41.8 -78.7 L 41.8 -78.7 Q 43.5 -78 44.5 -76.8 L 44.5 -76.8 L 44.5 -76.8 Q 46.2 -74.6 46.2 -70.5 L 46.2 -70.5 L 46.2 -70.5 Q 46.2 -66.4 44.5 -58 L 44.5 -58 L 44.5 -58 Q 43.6 -53.9 43.6 -52.4 L 43.6 -52.4 L 43.6 -52.4 Q 43.6 -50.9 44.4 -50 L 44.4 -50 L 44.4 -50 Q 45.3 -49.1 46.6 -49 L 46.6 -49 L 46.6 -49 Q 46 -46.8 43.7 -45.6 L 43.7 -45.6 L 43.7 -45.6 Q 41.5 -44.3 38.7 -44.3 Z M 54.3 -47.5 L 54.3 -47.5 L 54.3 -47.5 Q 52.8 -49.1 52.1 -51.8 L 52.1 -51.8 L 52.1 -51.8 Q 51.5 -54.4 51.5 -58.7 L 51.5 -58.7 L 51.5 -58.7 Q 51.5 -63 52.9 -66.9 L 52.9 -66.9 L 52.9 -66.9 Q 54.4 -70.8 57.1 -73.6 L 57.1 -73.6 L 57.1 -73.6 Q 62.6 -79.5 71.7 -79.5 L 71.7 -79.5 L 71.7 -79.5 Q 74.9 -79.5 77.3 -78.4 L 77.3 -78.4 L 88.3 -79.5 L 83.5 -54.5 L 83.5 -54.5 Q 83.3 -53.8 83.3 -52.3 L 83.3 -52.3 L 83.3 -52.3 Q 83.3 -50.9 84.2 -50 L 84.2 -50 L 84.2 -50 Q 85.1 -49.1 86.3 -49 L 86.3 -49 L 86.3 -49 Q 85.7 -46.8 83.4 -45.6 L 83.4 -45.6 L 83.4 -45.6 Q 81 -44.3 78.4 -44.3 L 78.4 -44.3 L 78.4 -44.3 Q 75.8 -44.3 74 -45.3 L 74 -45.3 L 74 -45.3 Q 72.3 -46.3 71.7 -47.9 L 71.7 -47.9 L 71.7 -47.9 Q 70.7 -46.3 68.5 -45.3 L 68.5 -45.3 L 68.5 -45.3 Q 66.4 -44.3 63.5 -44.3 L 63.5 -44.3 L 63.5 -44.3 Q 60.5 -44.3 58.2 -45.1 L 58.2 -45.1 L 58.2 -45.1 Q 55.8 -45.8 54.3 -47.5 Z M 67.8 -73.5 L 67.8 -73.5 L 67.8 -73.5 Q 67.1 -72.3 66.4 -70.4 L 66.4 -70.4 L 66.4 -70.4 Q 65.8 -68.4 64.7 -63.2 L 64.7 -63.2 L 64.7 -63.2 Q 63.7 -58 63.7 -54.3 L 63.7 -54.3 L 63.7 -54.3 Q 63.7 -50.6 64.3 -49.5 L 64.3 -49.5 L 64.3 -49.5 Q 64.8 -48.4 65.9 -48.4 L 65.9 -48.4 L 65.9 -48.4 Q 67.9 -48.4 69.4 -50.3 L 69.4 -50.3 L 69.4 -50.3 Q 70.9 -52.3 71.5 -55.7 L 71.5 -55.7 L 74.9 -74.5 L 74.9 -74.5 Q 73.5 -75.6 72 -75.6 L 72 -75.6 L 72 -75.6 Q 70.4 -75.6 69.5 -75.1 L 69.5 -75.1 L 69.5 -75.1 Q 68.5 -74.6 67.8 -73.5 Z M 96 -72.3 L 96 -72.3 L 96 -72.3 Q 98.2 -75.4 101.5 -77.4 L 101.5 -77.4 L 101.5 -77.4 Q 104.8 -79.5 108.8 -79.5 L 108.8 -79.5 L 108.8 -79.5 Q 112.8 -79.5 114.8 -78.2 L 114.8 -78.2 L 127.3 -79.5 L 122.9 -54.9 L 122.9 -54.9 Q 120.7 -42.4 116 -37.4 L 116 -37.4 L 116 -37.4 Q 111.4 -32.8 102.6 -32.8 L 102.6 -32.8 L 102.6 -32.8 Q 95.9 -32.8 92 -34.9 L 92 -34.9 L 92 -34.9 Q 88.2 -37 88.2 -40.5 L 88.2 -40.5 L 88.2 -40.5 Q 88.2 -43.1 90.2 -44.6 L 90.2 -44.6 L 90.2 -44.6 Q 92.2 -46.1 95.2 -46.1 L 95.2 -46.1 L 95.2 -46.1 Q 97.9 -46.1 100 -44.9 L 100 -44.9 L 100 -44.9 Q 101.2 -44.3 101.8 -43.4 L 101.8 -43.4 L 101.8 -43.4 Q 100.3 -42.1 100.3 -40 L 100.3 -40 L 100.3 -40 Q 100.3 -37.2 102.8 -37.2 L 102.8 -37.2 L 102.8 -37.2 Q 107.1 -37.2 109.6 -47.4 L 109.6 -47.4 L 109.6 -47.4 Q 110.3 -50.1 110.8 -52.9 L 110.8 -52.9 L 110.8 -52.9 Q 108 -49.3 101.4 -49.3 L 101.4 -49.3 L 101.4 -49.3 Q 96.9 -49.3 94.3 -51.5 L 94.3 -51.5 L 94.3 -51.5 Q 91.6 -53.7 91.6 -58.8 L 91.6 -58.8 L 91.6 -58.8 Q 91.6 -62 92.7 -65.6 L 92.7 -65.6 L 92.7 -65.6 Q 93.8 -69.2 96 -72.3 Z M 104.3 -58.6 L 104.3 -58.6 L 104.3 -58.6 Q 104.3 -54.3 106.6 -54.3 L 106.6 -54.3 L 106.6 -54.3 Q 108.1 -54.3 109.6 -55.9 L 109.6 -55.9 L 109.6 -55.9 Q 110.7 -57.3 111.2 -59.3 L 111.2 -59.3 L 114.4 -75.7 L 114.4 -75.7 Q 114.1 -75.8 113.8 -75.9 L 113.8 -75.9 L 113.8 -75.9 Q 113.2 -76.2 112.3 -76.2 L 112.3 -76.2 L 112.3 -76.2 Q 108.4 -76.2 106.1 -69.8 L 106.1 -69.8 L 106.1 -69.8 Q 104.3 -64.8 104.3 -58.6 Z M 155.7 -56.4 L 155.7 -56.4 L 155.7 -56.4 Q 157.3 -55.3 157.3 -52.9 L 157.3 -52.9 L 157.3 -52.9 Q 157.3 -50.5 156.1 -49 L 156.1 -49 L 156.1 -49 Q 154.9 -47.4 152.9 -46.4 L 152.9 -46.4 L 152.9 -46.4 Q 148.8 -44.3 144.4 -44.3 L 144.4 -44.3 L 144.4 -44.3 Q 140 -44.3 137.4 -45.2 L 137.4 -45.2 L 137.4 -45.2 Q 134.8 -46.2 133.1 -48 L 133.1 -48 L 133.1 -48 Q 129.7 -51.4 129.7 -57.6 L 129.7 -57.6 L 129.7 -57.6 Q 129.7 -67.3 134.9 -73.1 L 134.9 -73.1 L 134.9 -73.1 Q 140.5 -79.5 150.3 -79.5 L 150.3 -79.5 L 150.3 -79.5 Q 156.4 -79.5 159.4 -76.9 L 159.4 -76.9 L 159.4 -76.9 Q 161.7 -75 161.7 -71.9 L 161.7 -71.9 L 161.7 -71.9 Q 161.7 -60.6 142.2 -60.6 L 142.2 -60.6 L 142.2 -60.6 Q 142 -58.9 142 -57.5 L 142 -57.5 L 142 -57.5 Q 142 -54.6 143.3 -53.5 L 143.3 -53.5 L 143.3 -53.5 Q 144.6 -52.3 147 -52.3 L 147 -52.3 L 147 -52.3 Q 149.4 -52.3 152 -53.5 L 152 -53.5 L 152 -53.5 Q 154.6 -54.6 155.7 -56.4 Z M 142.7 -63.4 L 142.7 -63.4 L 142.7 -63.4 Q 147.2 -63.4 149.8 -66.2 L 149.8 -66.2 L 149.8 -66.2 Q 152.4 -68.9 152.4 -73.1 L 152.4 -73.1 L 152.4 -73.1 Q 152.4 -74.6 151.9 -75.4 L 151.9 -75.4 L 151.9 -75.4 Q 151.4 -76.2 150.3 -76.2 L 150.3 -76.2 L 150.3 -76.2 Q 149.2 -76.2 148.3 -75.8 L 148.3 -75.8 L 148.3 -75.8 Q 147.3 -75.4 146.4 -74 L 146.4 -74 L 146.4 -74 Q 144 -70.8 142.7 -63.4 Z M 202.9 -66.2 L 215.9 -67.3 L 215.9 -67.3 Q 211.3 -57.2 211.3 -45.5 L 211.3 -45.5 L 211.3 -45.5 Q 209.5 -44.3 207 -44.3 L 207 -44.3 L 207 -44.3 Q 204.5 -44.3 202.9 -45.5 L 202.9 -45.5 L 202.9 -45.5 Q 201.3 -46.7 201 -47.9 L 201 -47.9 L 201 -47.9 Q 199.4 -46.2 196.8 -45.2 L 196.8 -45.2 L 196.8 -45.2 Q 194.2 -44.3 191.4 -44.3 L 191.4 -44.3 L 191.4 -44.3 Q 188.7 -44.3 186.3 -45.2 L 186.3 -45.2 L 186.3 -45.2 Q 183.9 -46.1 182 -48.1 L 182 -48.1 L 182 -48.1 Q 177.9 -52.4 177.9 -60.7 L 177.9 -60.7 L 177.9 -60.7 Q 177.9 -73.5 184.8 -81.1 L 184.8 -81.1 L 184.8 -81.1 Q 191.8 -89.1 204.3 -89.1 L 204.3 -89.1 L 204.3 -89.1 Q 212.9 -89.1 216 -84.6 L 216 -84.6 L 216 -84.6 Q 217 -83.2 217 -81.5 L 217 -81.5 L 217 -81.5 Q 217 -79.8 216.2 -78.4 L 216.2 -78.4 L 216.2 -78.4 Q 215.5 -76.9 214.3 -75.8 L 214.3 -75.8 L 214.3 -75.8 Q 211.6 -73.2 208.2 -73.2 L 208.2 -73.2 L 208.2 -73.2 Q 206.8 -73.2 205.6 -73.7 L 205.6 -73.7 L 205.6 -73.7 Q 205.8 -75.6 205.8 -77.8 L 205.8 -77.8 L 205.8 -77.8 Q 205.8 -80.1 205.7 -81.1 L 205.7 -81.1 L 205.7 -81.1 Q 205.5 -82.1 205.1 -82.9 L 205.1 -82.9 L 205.1 -82.9 Q 204.3 -84.7 202.5 -84.7 L 202.5 -84.7 L 202.5 -84.7 Q 200.6 -84.7 198.6 -82.7 L 198.6 -82.7 L 198.6 -82.7 Q 196.6 -80.8 195 -77.6 L 195 -77.6 L 195 -77.6 Q 191.5 -70.4 191.5 -61.8 L 191.5 -61.8 L 191.5 -61.8 Q 191.5 -57.8 193 -55 L 193 -55 L 193 -55 Q 194.7 -51.9 197.6 -51.9 L 197.6 -51.9 L 197.6 -51.9 Q 198.7 -51.9 199.6 -52.4 L 199.6 -52.4 L 199.6 -52.4 Q 200.5 -52.9 200.9 -53.3 L 200.9 -53.3 L 202.9 -66.2 Z M 221.8 -47.5 L 221.8 -47.5 L 221.8 -47.5 Q 220.3 -49.1 219.6 -51.8 L 219.6 -51.8 L 219.6 -51.8 Q 218.9 -54.4 218.9 -58.7 L 218.9 -58.7 L 218.9 -58.7 Q 218.9 -63 220.4 -66.9 L 220.4 -66.9 L 220.4 -66.9 Q 221.9 -70.8 224.6 -73.6 L 224.6 -73.6 L 224.6 -73.6 Q 230.1 -79.5 239.2 -79.5 L 239.2 -79.5 L 239.2 -79.5 Q 242.4 -79.5 244.8 -78.4 L 244.8 -78.4 L 255.7 -79.5 L 251 -54.5 L 251 -54.5 Q 250.8 -53.8 250.8 -52.3 L 250.8 -52.3 L 250.8 -52.3 Q 250.8 -50.9 251.7 -50 L 251.7 -50 L 251.7 -50 Q 252.5 -49.1 253.8 -49 L 253.8 -49 L 253.8 -49 Q 253.2 -46.8 250.8 -45.6 L 250.8 -45.6 L 250.8 -45.6 Q 248.5 -44.3 245.9 -44.3 L 245.9 -44.3 L 245.9 -44.3 Q 243.3 -44.3 241.5 -45.3 L 241.5 -45.3 L 241.5 -45.3 Q 239.7 -46.3 239.2 -47.9 L 239.2 -47.9 L 239.2 -47.9 Q 238.2 -46.3 236 -45.3 L 236 -45.3 L 236 -45.3 Q 233.9 -44.3 230.9 -44.3 L 230.9 -44.3 L 230.9 -44.3 Q 228 -44.3 225.7 -45.1 L 225.7 -45.1 L 225.7 -45.1 Q 223.3 -45.8 221.8 -47.5 Z M 235.3 -73.5 L 235.3 -73.5 L 235.3 -73.5 Q 234.6 -72.3 233.9 -70.4 L 233.9 -70.4 L 233.9 -70.4 Q 233.3 -68.4 232.2 -63.2 L 232.2 -63.2 L 232.2 -63.2 Q 231.2 -58 231.2 -54.3 L 231.2 -54.3 L 231.2 -54.3 Q 231.2 -50.6 231.7 -49.5 L 231.7 -49.5 L 231.7 -49.5 Q 232.3 -48.4 233.3 -48.4 L 233.3 -48.4 L 233.3 -48.4 Q 235.4 -48.4 236.9 -50.3 L 236.9 -50.3 L 236.9 -50.3 Q 238.4 -52.3 239 -55.7 L 239 -55.7 L 242.4 -74.5 L 242.4 -74.5 Q 241 -75.6 239.5 -75.6 L 239.5 -75.6 L 239.5 -75.6 Q 237.9 -75.6 237 -75.1 L 237 -75.1 L 237 -75.1 Q 236 -74.6 235.3 -73.5 Z M 274.5 -49.1 L 274.5 -49.1 L 274.5 -49.1 Q 272.5 -44.3 266.2 -44.3 L 266.2 -44.3 L 266.2 -44.3 Q 263 -44.3 260.9 -46.5 L 260.9 -46.5 L 260.9 -46.5 Q 259.3 -48.4 259.3 -50.5 L 259.3 -50.5 L 259.3 -50.5 Q 259.3 -55.3 261.5 -65.8 L 261.5 -65.8 L 266.2 -90.4 L 279.2 -91.6 L 273 -59.3 L 273 -59.3 Q 271.9 -54.5 271.9 -52.9 L 271.9 -52.9 L 271.9 -52.9 Q 271.9 -49.2 274.5 -49.1 Z M 295.2 -49.1 L 295.2 -49.1 L 295.2 -49.1 Q 293.2 -44.3 286.9 -44.3 L 286.9 -44.3 L 286.9 -44.3 Q 283.7 -44.3 281.7 -46.5 L 281.7 -46.5 L 281.7 -46.5 Q 280 -48.4 280 -50.5 L 280 -50.5 L 280 -50.5 Q 280 -55.3 282.2 -65.8 L 282.2 -65.8 L 286.9 -90.4 L 299.9 -91.6 L 293.7 -59.3 L 293.7 -59.3 Q 292.6 -54.5 292.6 -52.9 L 292.6 -52.9 L 292.6 -52.9 Q 292.6 -49.2 295.2 -49.1 Z M 326.6 -56.4 L 326.6 -56.4 L 326.6 -56.4 Q 328.2 -55.3 328.2 -52.9 L 328.2 -52.9 L 328.2 -52.9 Q 328.2 -50.5 327 -49 L 327 -49 L 327 -49 Q 325.8 -47.4 323.8 -46.4 L 323.8 -46.4 L 323.8 -46.4 Q 319.7 -44.3 315.3 -44.3 L 315.3 -44.3 L 315.3 -44.3 Q 310.8 -44.3 308.3 -45.2 L 308.3 -45.2 L 308.3 -45.2 Q 305.7 -46.2 303.9 -48 L 303.9 -48 L 303.9 -48 Q 300.5 -51.4 300.5 -57.6 L 300.5 -57.6 L 300.5 -57.6 Q 300.5 -67.3 305.8 -73.1 L 305.8 -73.1 L 305.8 -73.1 Q 311.4 -79.5 321.2 -79.5 L 321.2 -79.5 L 321.2 -79.5 Q 327.3 -79.5 330.3 -76.9 L 330.3 -76.9 L 330.3 -76.9 Q 332.5 -75 332.5 -71.9 L 332.5 -71.9 L 332.5 -71.9 Q 332.5 -60.6 313.1 -60.6 L 313.1 -60.6 L 313.1 -60.6 Q 312.8 -58.9 312.8 -57.5 L 312.8 -57.5 L 312.8 -57.5 Q 312.8 -54.6 314.1 -53.5 L 314.1 -53.5 L 314.1 -53.5 Q 315.5 -52.3 317.9 -52.3 L 317.9 -52.3 L 317.9 -52.3 Q 320.3 -52.3 322.9 -53.5 L 322.9 -53.5 L 322.9 -53.5 Q 325.5 -54.6 326.6 -56.4 Z M 313.5 -63.4 L 313.5 -63.4 L 313.5 -63.4 Q 318.1 -63.4 320.7 -66.2 L 320.7 -66.2 L 320.7 -66.2 Q 323.3 -68.9 323.3 -73.1 L 323.3 -73.1 L 323.3 -73.1 Q 323.3 -74.6 322.8 -75.4 L 322.8 -75.4 L 322.8 -75.4 Q 322.2 -76.2 321.2 -76.2 L 321.2 -76.2 L 321.2 -76.2 Q 320.1 -76.2 319.1 -75.8 L 319.1 -75.8 L 319.1 -75.8 Q 318.2 -75.4 317.2 -74 L 317.2 -74 L 317.2 -74 Q 314.9 -70.8 313.5 -63.4 Z M 354.8 -63.5 L 354.8 -63.5 L 354.8 -63.5 Q 357.1 -67.6 357.1 -71.8 L 357.1 -71.8 L 357.1 -71.8 Q 357.1 -74.6 355.1 -74.6 L 355.1 -74.6 L 355.1 -74.6 Q 353.5 -74.6 351.9 -71.9 L 351.9 -71.9 L 351.9 -71.9 Q 350.3 -69.3 349.8 -65.9 L 349.8 -65.9 L 346.4 -45.6 L 333.2 -44.3 L 339.7 -78.2 L 350.3 -79.5 L 349.1 -73 L 349.1 -73 Q 352.3 -79.5 359.3 -79.5 L 359.3 -79.5 L 359.3 -79.5 Q 363 -79.5 365 -77.6 L 365 -77.6 L 365 -77.6 Q 367 -75.6 367 -71.7 L 367 -71.7 L 367 -71.7 Q 367 -67.8 364.4 -65.3 L 364.4 -65.3 L 364.4 -65.3 Q 361.9 -62.8 357.4 -62.8 L 357.4 -62.8 L 357.4 -62.8 Q 355.5 -62.8 354.8 -63.5 Z M 388.4 -52.8 L 388.4 -52.8 L 388.4 -52.8 Q 385.1 -49.3 379 -49.3 L 379 -49.3 L 379 -49.3 Q 371.4 -49.3 369.8 -54.9 L 369.8 -54.9 L 369.8 -54.9 Q 369.3 -56.6 369.3 -58.4 L 369.3 -58.4 L 369.3 -58.4 Q 369.3 -60.3 369.7 -62.2 L 369.7 -62.2 L 372.7 -78.2 L 385.7 -79.5 L 382.1 -60.9 L 382.1 -60.9 Q 382 -60 381.8 -59.1 L 381.8 -59.1 L 381.8 -59.1 Q 381.6 -58.2 381.6 -57.3 L 381.6 -57.3 L 381.6 -57.3 Q 381.6 -56.4 382 -55.8 L 382 -55.8 L 382 -55.8 Q 382.3 -55.2 382.7 -54.8 L 382.7 -54.8 L 382.7 -54.8 Q 383.5 -54.3 384.9 -54.3 L 384.9 -54.3 L 384.9 -54.3 Q 386.2 -54.3 387.4 -55.9 L 387.4 -55.9 L 387.4 -55.9 Q 388.6 -57.6 389.2 -60.5 L 389.2 -60.5 L 392.7 -78.2 L 405.3 -79.5 L 400.5 -54.3 L 400.5 -54.3 Q 398.1 -42 393.3 -37.2 L 393.3 -37.2 L 393.3 -37.2 Q 390.8 -34.7 387.6 -33.7 L 387.6 -33.7 L 387.6 -33.7 Q 384.3 -32.7 380.2 -32.7 L 380.2 -32.7 L 380.2 -32.7 Q 373.4 -32.7 369.6 -34.8 L 369.6 -34.8 L 369.6 -34.8 Q 365.8 -36.9 365.8 -40.4 L 365.8 -40.4 L 365.8 -40.4 Q 365.8 -43.1 367.7 -44.6 L 367.7 -44.6 L 367.7 -44.6 Q 369.7 -46.1 372.8 -46.1 L 372.8 -46.1 L 372.8 -46.1 Q 375.5 -46.1 377.5 -44.9 L 377.5 -44.9 L 377.5 -44.9 Q 378.8 -44.2 379.3 -43.3 L 379.3 -43.3 L 379.3 -43.3 Q 377.9 -42 377.9 -39.9 L 377.9 -39.9 L 377.9 -39.9 Q 377.9 -37.1 380.4 -37.1 L 380.4 -37.1 L 380.4 -37.1 Q 384.6 -37.1 387.1 -46.8 L 387.1 -46.8 L 387.1 -46.8 Q 387.8 -49.7 388.4 -52.8 Z" fill="url(#editing-gradient-gradient)"></path></g></g><style>text {
  font-size: 64px;
  font-family: Arial Black;
  dominant-baseline: central;
  text-anchor: middle;
}</style></svg>